<svg id="visual" viewBox="0 0 900 600" width="900" height="600" xmlns="http://www.w3.org/2000/svg" xmlns:xlink="http://www.w3.org/1999/xlink" version="1.1"><rect x="0" y="0" width="900" height="600" fill="#002233"></rect><path d="M0 448L38 419L75 542L113 498L150 421L188 512L225 429L263 479L300 466L338 432L375 522L413 489L450 437L487 470L525 523L563 456L600 483L638 530L675 548L713 419L750 499L788 525L825 540L863 462L900 502L900 601L863 601L825 601L788 601L750 601L713 601L675 601L638 601L600 601L563 601L525 601L487 601L450 601L413 601L375 601L338 601L300 601L263 601L225 601L188 601L150 601L113 601L75 601L38 601L0 601Z" fill="#0066FF" stroke-linecap="square" stroke-linejoin="bevel"></path></svg>